<!-- icon666.com - MILLIONS vector ICONS FREE --><svg version="1.1" id="Capa_1" xmlns="http://www.w3.org/2000/svg" xmlns:xlink="http://www.w3.org/1999/xlink" x="0px" y="0px" viewBox="0 0 511.608 511.608" style="enable-background:new 0 0 511.608 511.608;" xml:space="preserve"><path style="fill: rgb(192, 137, 71);" d="M175.883,155.881v-47.963h-39.969v47.963c0,0-47.963,31.976-47.963,71.945v199.847v71.944 c0,4.396,3.521,7.994,7.994,7.994h11.991h15.988h15.988H155.9h15.987h15.988h15.987h11.991c4.398,0,7.994-3.599,7.994-7.994V283.783 v-55.957C223.846,187.856,175.883,155.881,175.883,155.881z M207.858,427.672h-103.92v-143.89h103.92V427.672z" fill="#656D78"></path><g style="opacity:0.4;"><path style="" d="M103.938,499.617v-71.944v-143.89v-55.957c0-39.969,31.975-71.945,31.975-71.945 S87.95,187.857,87.95,227.826v199.847v71.944c0,4.396,3.521,7.994,7.994,7.994h11.991h3.997 C107.459,507.611,103.938,504.012,103.938,499.617z" fill="#FFFFFF"></path></g><g style="opacity:0.2;"><path d="M207.858,499.617v-71.944v-143.89v-55.957c0-39.969-31.976-71.945-31.976-71.945s47.963,31.976,47.963,71.945v199.847 v71.944c0,4.396-3.521,7.994-7.994,7.994H203.86h-3.997C204.338,507.611,207.858,504.012,207.858,499.617z" fill="#000000"></path></g><polygon style="" points="375.725,507.611 327.763,507.611 351.744,491.622 " fill="#E6E9ED"></polygon><g style="opacity:0.3;"><polygon points="351.744,491.622 375.725,507.611 367.731,507.611 347.746,494.292 " fill="#000000"></polygon></g><polygon style="" points="351.744,491.622 327.763,507.611 335.755,507.611 355.741,494.292 " fill="#FFFFFF"></polygon><path style="" d="M279.798,315.758H423.61c0,2.639-0.076,5.199-0.311,7.838c-3.764,44.521-71.555,72.101-71.555,72.101 s-67.862-27.58-71.618-72.101C279.884,320.957,279.798,318.319,279.798,315.758z" fill="#ED5565"></path><g style="opacity:0.4;"><path style="" d="M296.115,323.596c-0.242-2.639-0.328-5.277-0.328-7.838h-15.988c0,2.561,0.086,5.199,0.328,7.838 c3.756,44.521,71.618,72.101,71.618,72.101S299.074,358.678,296.115,323.596z" fill="#FFFFFF"></path></g><path style="" d="M398.754,235.82c0,0,25.098,38.291,24.855,79.938H279.798c-0.156-41.647,24.951-79.938,24.951-79.938 H398.754z" fill="#E6E9ED"></path><path style="" d="M304.749,235.82c0,0-25.107,38.291-24.951,79.938h15.988c-0.156-41.647,24.949-79.938,24.949-79.938 H304.749z" fill="#FFFFFF"></path><g style="opacity:0.3;"><path d="M407.342,323.596c0.242-2.639,0.328-5.277,0.328-7.838h15.986c0,2.561-0.086,5.199-0.326,7.838 c-3.756,44.521-71.617,72.101-71.617,72.101S404.383,358.678,407.342,323.596z" fill="#000000"></path></g><g style="opacity:0.2;"><path d="M398.707,235.82c0,0,25.105,38.291,24.949,79.938H407.67c0.156-41.647-24.949-79.938-24.949-79.938H398.707z" fill="#000000"></path></g><g><rect x="135.914" y="3.997" style="" width="39.969" height="103.92" fill="#ED5565"></rect><path style="" d="M151.901,335.742c0,4.396-3.595,7.994-7.994,7.994c-4.473,0-7.994-3.599-7.994-7.994 s3.521-7.993,7.994-7.993C148.306,327.749,151.901,331.348,151.901,335.742z" fill="#ED5565"></path><path style="" d="M155.898,347.734c4.399,0,7.994,3.599,7.994,7.994s-3.595,7.993-7.994,7.993 c-4.473,0-7.994-3.599-7.994-7.993C147.904,351.332,151.425,347.734,155.898,347.734z" fill="#ED5565"></path><path style="" d="M167.889,327.749c4.399,0,7.994,3.599,7.994,7.993c0,4.396-3.595,7.994-7.994,7.994 c-4.473,0-7.994-3.599-7.994-7.994C159.895,331.348,163.416,327.749,167.889,327.749z" fill="#ED5565"></path></g><path style="fill: rgb(242, 226, 212);" d="M143.907,343.737c4.399,0,7.994-3.599,7.994-7.994s-3.595-7.993-7.994-7.993 c-4.473,0-7.994,3.599-7.994,7.993C135.913,340.138,139.434,343.737,143.907,343.737z M155.898,363.721 c4.399,0,7.994-3.599,7.994-7.993c0-4.396-3.595-7.994-7.994-7.994c-4.473,0-7.994,3.599-7.994,7.994 C147.904,360.122,151.425,363.721,155.898,363.721z M167.889,343.737c4.399,0,7.994-3.599,7.994-7.994s-3.595-7.993-7.994-7.993 c-4.473,0-7.994,3.599-7.994,7.993C159.895,340.138,163.416,343.737,167.889,343.737z M207.858,283.783v143.89h-103.92v-143.89 H207.858z" fill="#FFCE54"></path><g style="opacity:0.4;"><polygon style="" points="143.907,147.887 135.913,155.881 135.913,3.997 143.907,3.997 " fill="#FFFFFF"></polygon></g><g style="opacity:0.3;"><polygon points="175.883,155.881 167.889,147.887 167.889,3.997 175.883,3.997 " fill="#000000"></polygon></g><g style="opacity:0.5;"><rect x="103.934" y="283.784" style="" width="15.987" height="143.89" fill="#FFFFFF"></rect></g><g style="opacity:0.2;"><rect x="191.874" y="283.784" width="15.988" height="143.89" fill="#000000"></rect></g><g><path style="fill: rgb(119, 68, 34);" d="M87.95,503.614c-2.209,0-3.997-1.788-3.997-3.997V227.825c0-2.209,1.788-3.997,3.997-3.997 s3.997,1.788,3.997,3.997v271.791C91.947,501.825,90.159,503.614,87.95,503.614z" fill="#3A3847"></path><path style="fill: rgb(119, 68, 34);" d="M95.944,511.608c-6.612,0-11.991-5.379-11.991-11.991c0-2.209,1.788-3.996,3.997-3.996 s3.997,1.787,3.997,3.996c0,2.24,1.757,3.997,3.997,3.997c2.209,0,3.997,1.788,3.997,3.997S98.153,511.608,95.944,511.608z" fill="#3A3847"></path><path style="fill: rgb(119, 68, 34);" d="M223.846,503.614c-2.209,0-3.997-1.788-3.997-3.997V227.825c0-2.209,1.788-3.997,3.997-3.997 s3.997,1.788,3.997,3.997v271.791C227.843,501.825,226.055,503.614,223.846,503.614z" fill="#3A3847"></path><path style="fill: rgb(119, 68, 34);" d="M215.852,511.608c-2.209,0-3.997-1.788-3.997-3.997s1.788-3.997,3.997-3.997 c2.205,0,3.997-1.796,3.997-3.997c0-2.209,1.788-3.996,3.997-3.996s3.997,1.787,3.997,3.996 C227.843,506.229,222.464,511.608,215.852,511.608z" fill="#3A3847"></path><path style="fill: rgb(119, 68, 34);" d="M215.852,511.608H95.944c-2.209,0-3.997-1.788-3.997-3.997s1.788-3.997,3.997-3.997h119.908 c2.209,0,3.997,1.788,3.997,3.997S218.061,511.608,215.852,511.608z" fill="#3A3847"></path><path style="fill: rgb(119, 68, 34);" d="M135.913,159.878c-2.209,0-3.997-1.788-3.997-3.997V3.997c0-2.209,1.787-3.997,3.997-3.997 s3.997,1.788,3.997,3.997V155.88C139.91,158.09,138.123,159.878,135.913,159.878z" fill="#3A3847"></path><path style="fill: rgb(119, 68, 34);" d="M175.883,159.878c-2.209,0-3.997-1.788-3.997-3.997V3.997c0-2.209,1.788-3.997,3.997-3.997 s3.997,1.788,3.997,3.997V155.88C179.88,158.09,178.092,159.878,175.883,159.878z" fill="#3A3847"></path><path style="fill: rgb(119, 68, 34);" d="M87.95,231.823c-2.209,0-3.997-1.788-3.997-3.997c0-41.628,47.713-73.916,49.743-75.271 c1.835-1.226,4.313-0.729,5.543,1.108c1.222,1.835,0.73,4.317-1.108,5.543c-0.461,0.309-46.184,31.285-46.184,68.619 C91.947,230.034,90.159,231.823,87.95,231.823z" fill="#3A3847"></path><path style="fill: rgb(119, 68, 34);" d="M223.846,231.823c-2.209,0-3.997-1.788-3.997-3.997c0-37.334-45.723-68.311-46.183-68.619 c-1.839-1.226-2.33-3.708-1.108-5.543c1.229-1.838,3.7-2.334,5.542-1.108c2.03,1.354,49.743,33.643,49.743,75.271 C227.843,230.034,226.055,231.823,223.846,231.823z" fill="#3A3847"></path><path style="fill: rgb(119, 68, 34);" d="M175.883,7.994h-39.969c-2.209,0-3.997-1.788-3.997-3.997S133.704,0,135.914,0h39.969 c2.209,0,3.997,1.788,3.997,3.997S178.092,7.994,175.883,7.994z" fill="#3A3847"></path><path style="fill: rgb(119, 68, 34);" d="M175.883,111.914h-39.969c-2.209,0-3.997-1.788-3.997-3.997s1.787-3.997,3.997-3.997h39.969 c2.209,0,3.997,1.788,3.997,3.997C179.88,110.127,178.092,111.914,175.883,111.914z" fill="#3A3847"></path><path style="fill: rgb(119, 68, 34);" d="M167.889,23.982h-23.982c-2.209,0-3.997-1.787-3.997-3.997s1.788-3.997,3.997-3.997h23.982 c2.209,0,3.997,1.787,3.997,3.997S170.098,23.982,167.889,23.982z" fill="#3A3847"></path><path style="fill: rgb(119, 68, 34);" d="M167.889,39.97h-23.982c-2.209,0-3.997-1.788-3.997-3.997s1.788-3.997,3.997-3.997h23.982 c2.209,0,3.997,1.788,3.997,3.997S170.098,39.97,167.889,39.97z" fill="#3A3847"></path><path style="fill: rgb(119, 68, 34);" d="M207.858,287.78h-103.92c-2.209,0-3.997-1.788-3.997-3.997s1.788-3.997,3.997-3.997h103.92 c2.209,0,3.997,1.788,3.997,3.997S210.067,287.78,207.858,287.78z" fill="#3A3847"></path><path style="fill: rgb(119, 68, 34);" d="M207.858,431.669h-103.92c-2.209,0-3.997-1.788-3.997-3.997s1.788-3.997,3.997-3.997h103.92 c2.209,0,3.997,1.788,3.997,3.997S210.067,431.669,207.858,431.669z" fill="#3A3847"></path><path style="fill: rgb(119, 68, 34);" d="M155.898,367.718c-6.612,0-11.991-5.379-11.991-11.99c0-6.612,5.379-11.991,11.991-11.991 s11.991,5.379,11.991,11.991C167.889,362.339,162.511,367.718,155.898,367.718z M155.898,351.73c-2.241,0-3.997,1.757-3.997,3.998 c0,2.24,1.756,3.996,3.997,3.996c2.205,0,3.997-1.795,3.997-3.996C159.895,353.526,158.103,351.73,155.898,351.73z" fill="#3A3847"></path><path style="fill: rgb(119, 68, 34);" d="M143.907,347.734c-6.612,0-11.99-5.379-11.99-11.991s5.378-11.991,11.99-11.991 s11.991,5.379,11.991,11.991S150.519,347.734,143.907,347.734z M143.907,331.745c-2.24,0-3.997,1.757-3.997,3.997 c0,2.241,1.756,3.997,3.997,3.997c2.206,0,3.997-1.795,3.997-3.997C147.904,333.541,146.113,331.745,143.907,331.745z" fill="#3A3847"></path><path style="fill: rgb(119, 68, 34);" d="M167.889,347.734c-6.612,0-11.991-5.379-11.991-11.991s5.379-11.991,11.991-11.991 s11.991,5.379,11.991,11.991S174.501,347.734,167.889,347.734z M167.889,331.745c-2.241,0-3.997,1.757-3.997,3.997 c0,2.241,1.756,3.997,3.997,3.997c2.206,0,3.997-1.795,3.997-3.997C171.886,333.541,170.095,331.745,167.889,331.745z" fill="#3A3847"></path><path style="fill: rgb(119, 68, 34);" d="M155.898,327.749c-2.209,0-3.997-1.788-3.997-3.998c0-15.808,10.457-19.984,15.988-19.984 c2.209,0,3.997,1.788,3.997,3.997c0,2.21-1.787,3.997-3.997,3.997c-1.288,0.039-7.994,0.797-7.994,11.99 C159.895,325.961,158.107,327.749,155.898,327.749z" fill="#3A3847"></path><path style="fill: rgb(119, 68, 34);" d="M191.87,391.7h-71.945c-2.209,0-3.997-1.788-3.997-3.997s1.788-3.996,3.997-3.996h71.945 c2.209,0,3.997,1.787,3.997,3.996S194.08,391.7,191.87,391.7z" fill="#3A3847"></path><path style="fill: rgb(119, 68, 34);" d="M175.883,407.687h-39.969c-2.209,0-3.997-1.787-3.997-3.996s1.787-3.997,3.997-3.997h39.969 c2.209,0,3.997,1.788,3.997,3.997S178.092,407.687,175.883,407.687z" fill="#3A3847"></path><path style="fill: rgb(119, 68, 34);" d="M103.938,431.669c-2.209,0-3.997-1.788-3.997-3.997v-143.89c0-2.209,1.788-3.997,3.997-3.997 s3.997,1.788,3.997,3.997v143.89C107.935,429.881,106.147,431.669,103.938,431.669z" fill="#3A3847"></path><path style="fill: rgb(119, 68, 34);" d="M207.858,431.669c-2.209,0-3.997-1.788-3.997-3.997v-143.89c0-2.209,1.788-3.997,3.997-3.997 s3.997,1.788,3.997,3.997v143.89C211.855,429.881,210.067,431.669,207.858,431.669z" fill="#3A3847"></path><path style="fill: rgb(119, 68, 34);" d="M107.935,511.608c-2.209,0-3.997-1.788-3.997-3.997v-3.997c0-2.209,1.787-3.997,3.997-3.997 s3.997,1.788,3.997,3.997v3.997C111.932,509.82,110.144,511.608,107.935,511.608z" fill="#3A3847"></path><path style="fill: rgb(119, 68, 34);" d="M123.923,511.608c-2.209,0-3.997-1.788-3.997-3.997v-3.997c0-2.209,1.788-3.997,3.997-3.997 s3.997,1.788,3.997,3.997v3.997C127.92,509.82,126.132,511.608,123.923,511.608z" fill="#3A3847"></path><path style="fill: rgb(119, 68, 34);" d="M139.91,511.608c-2.209,0-3.997-1.788-3.997-3.997v-3.997c0-2.209,1.788-3.997,3.997-3.997 s3.997,1.788,3.997,3.997v3.997C143.907,509.82,142.12,511.608,139.91,511.608z" fill="#3A3847"></path><path style="fill: rgb(119, 68, 34);" d="M155.898,511.608c-2.209,0-3.997-1.788-3.997-3.997v-3.997c0-2.209,1.788-3.997,3.997-3.997 s3.997,1.788,3.997,3.997v3.997C159.895,509.82,158.107,511.608,155.898,511.608z" fill="#3A3847"></path><path style="fill: rgb(119, 68, 34);" d="M171.886,511.608c-2.209,0-3.997-1.788-3.997-3.997v-3.997c0-2.209,1.788-3.997,3.997-3.997 s3.997,1.788,3.997,3.997v3.997C175.883,509.82,174.095,511.608,171.886,511.608z" fill="#3A3847"></path><path style="fill: rgb(119, 68, 34);" d="M187.874,511.608c-2.209,0-3.997-1.788-3.997-3.997v-3.997c0-2.209,1.788-3.997,3.997-3.997 s3.997,1.788,3.997,3.997v3.997C191.87,509.82,190.083,511.608,187.874,511.608z" fill="#3A3847"></path><path style="fill: rgb(119, 68, 34);" d="M203.861,511.608c-2.209,0-3.997-1.788-3.997-3.997v-3.997c0-2.209,1.788-3.997,3.997-3.997 s3.997,1.788,3.997,3.997v3.997C207.858,509.82,206.071,511.608,203.861,511.608z" fill="#3A3847"></path><path style="fill: rgb(119, 68, 34);" d="M351.744,399.694c-0.5,0-1.008-0.094-1.5-0.297c-2.865-1.163-70.181-29.04-74.099-75.474 c-0.25-2.731-0.344-5.495-0.344-8.165c-0.156-42.343,24.543-80.524,25.605-82.128c1.209-1.838,3.676-2.366,5.527-1.151 c1.842,1.206,2.357,3.685,1.154,5.531c-0.25,0.375-24.434,37.826-24.293,77.733c0,2.451,0.078,4.973,0.313,7.494 c3.512,41.624,68.485,68.494,69.149,68.76c2.037,0.827,3.029,3.161,2.193,5.207C354.821,398.757,353.321,399.694,351.744,399.694z" fill="#3A3847"></path><path style="fill: rgb(119, 68, 34);" d="M351.744,399.694c-1.578,0-3.061-0.937-3.701-2.49c-0.826-2.046,0.156-4.38,2.201-5.207 c0.656-0.266,65.561-27.198,69.072-68.744c0.227-2.545,0.297-4.98,0.297-7.494c0.234-40.001-23.959-77.374-24.199-77.749 c-1.211-1.846-0.695-4.321,1.154-5.531c1.842-1.21,4.324-0.699,5.527,1.151c1.055,1.604,25.762,39.786,25.512,82.152 c0,2.74-0.078,5.41-0.328,8.173c-3.918,46.402-71.164,74.279-74.021,75.442C352.758,399.6,352.252,399.694,351.744,399.694z" fill="#3A3847"></path><path style="fill: rgb(119, 68, 34);" d="M398.754,239.816h-94.005c-2.219,0-3.998-1.788-3.998-3.997s1.779-3.997,3.998-3.997h94.005 c2.209,0,3.998,1.788,3.998,3.997C402.752,238.029,400.963,239.816,398.754,239.816z" fill="#3A3847"></path><path style="fill: rgb(119, 68, 34);" d="M351.744,495.62c-2.201,0-3.998-1.788-3.998-3.998v-95.926c0-2.209,1.797-3.997,3.998-3.997 c2.217,0,3.996,1.788,3.996,3.997v95.926C355.741,493.832,353.961,495.62,351.744,495.62z" fill="#3A3847"></path><path style="fill: rgb(119, 68, 34);" d="M407.701,511.608H295.786c-2.201,0-3.996-1.788-3.996-3.997s1.795-3.997,3.996-3.997h111.915 c2.217,0,3.996,1.788,3.996,3.997S409.918,511.608,407.701,511.608z" fill="#3A3847"></path><path style="fill: rgb(119, 68, 34);" d="M375.725,511.608c-0.764,0-1.529-0.219-2.217-0.671l-23.98-15.988 c-1.836-1.226-2.326-3.7-1.109-5.543c1.219-1.842,3.701-2.342,5.543-1.108l23.98,15.988c1.844,1.226,2.344,3.7,1.109,5.542 C378.285,510.984,377.022,511.608,375.725,511.608z" fill="#3A3847"></path><path style="fill: rgb(119, 68, 34);" d="M327.771,511.608c-1.289,0-2.561-0.624-3.334-1.78c-1.219-1.842-0.727-4.316,1.107-5.542 l23.983-15.988c1.842-1.233,4.324-0.733,5.541,1.108c1.234,1.843,0.734,4.317-1.107,5.543l-23.981,15.988 C329.3,511.389,328.527,511.608,327.771,511.608z" fill="#3A3847"></path><path style="fill: rgb(119, 68, 34);" d="M423.688,319.755h-143.89c-2.201,0-3.996-1.788-3.996-3.997s1.795-3.997,3.996-3.997H423.61 c2.219,0,4.045,1.788,4.045,3.997S425.907,319.755,423.688,319.755z" fill="#3A3847"></path></g></svg>